{"asset":{"generator":"Khronos glTF Spline I/O v0.0.1","version":"2.0"},"scenes":[{"nodes":[0]}],"nodes":[{"name":"","children":[1,2,3,4]},{"name":"Group","matrix":[1,0,0,0,0,1,0,0,0,0,1,0,-41.83125144875403,-100.34782252018334,213,1]},{"name":"Group 2","matrix":[1.2709750671195743,0,0,0,0,1.3674209169696558,0,0,0,0,1,0,-84.17448324190684,41.13549388317534,213.00000000000006,1],"children":[5,6]},{"name":"Directional Light","translation":[200,300,300],"rotation":[-0.4062840720729887,0.12301291902225084,-0.2623788760260691,0.8665785595944042],"extensions":{"KHR_lights_punctual":{"light":0}}},{"name":"Personal Camera","camera":0,"translation":[0,6.123233995736766e-14,1000],"rotation":[-3.061616997868383e-17,0,0,1]},{"name":"Cylinder","matrix":[-0.572867870661348,2.2284257692182577e-16,-0.8196477308965928,0,6.573559973080514e-17,0.9369907689100015,2.0880143749586753e-16,0,0.8196477308965928,7.015608041397805e-17,-0.572867870661348,0,-0.7717857211331632,65.16935218606659,-2.4275840422953365,1],"mesh":0},{"name":"Sphere","matrix":[-0.697850005641294,3.475009608426115e-17,0.7162439316507014,0,8.546197756935695e-17,1,3.475009608426099e-17,0,-0.7162439316507014,8.546197756935737e-17,-0.697850005641294,0,3.5527136788005e-14,-1.2611079052657177,-2.8421709430404004e-14,1],"mesh":1}],"cameras":[{"type":"orthographic","orthographic":{"xmag":1366,"ymag":657,"zfar":500000,"znear":-500000}}],"meshes":[{"primitives":[{"attributes":{"POSITION":1,"NORMAL":2,"FACEMAP":3,"COLOR":4},"indices":0}]},{"primitives":[{"attributes":{"POSITION":6,"NORMAL":7},"indices":5}]}],"buffers":[{"uri":"data:application/octet-stream;base64,","byteLength":491520},{"uri":"data:application/octet-stream;base64,","byteLength":476160}],"bufferViews":[{"buffer":0,"byteOffset":0,"byteLength":61440,"target":34963},{"buffer":0,"byteOffset":61440,"byteLength":122880,"target":34962},{"buffer":0,"byteOffset":184320,"byteLength":122880,"target":34962},{"buffer":0,"byteOffset":307200,"byteLength":20480,"target":34962},{"buffer":0,"byteOffset":327680,"byteLength":163840,"target":34962},{"buffer":1,"byteOffset":0,"byteLength":95232,"target":34963},{"buffer":1,"byteOffset":95232,"byteLength":190464,"target":34962},{"buffer":1,"byteOffset":285696,"byteLength":190464,"target":34962}],"accessors":[{"bufferView":0,"byteOffset":0,"componentType":5125,"count":15360,"type":"SCALAR","min":[0],"max":[10239]},{"bufferView":1,"byteOffset":0,"componentType":5126,"count":10240,"type":"VEC3","min":[-8.506402015686035,-26,-8.506402015686035],"max":[8.506402015686035,26,8.506402015686035]},{"bufferView":2,"byteOffset":0,"componentType":5126,"count":10240,"type":"VEC3","min":[-0.9999999403953552,-1,-0.9999999403953552],"max":[0.9999999403953552,1,0.9999999403953552]},{"bufferView":3,"byteOffset":0,"componentType":5125,"count":5120,"type":"SCALAR","min":[0],"max":[5119]},{"bufferView":4,"byteOffset":0,"componentType":5126,"count":10240,"type":"VEC4","min":[0,0,0,0],"max":[0,0,0,0]},{"bufferView":5,"byteOffset":0,"componentType":5125,"count":23808,"type":"SCALAR","min":[0],"max":[15871]},{"bufferView":6,"byteOffset":0,"componentType":5126,"count":15872,"type":"VEC3","min":[-88.20486450195312,-88.00222778320312,-87.33155822753906],"max":[88.20486450195312,88.00222778320312,87.33155822753906]},{"bufferView":7,"byteOffset":0,"componentType":5126,"count":15872,"type":"VEC3","min":[-1,-1,-1],"max":[1,1,1]}],"extensions":{"KHR_lights_punctual":{"lights":[{"type":"directional","name":"Directional Light","color":[1,1,1],"intensity":0.7}]}},"extensionsUsed":["KHR_lights_punctual"]}