{"asset":{"generator":"Khronos glTF Spline I/O v0.0.1","version":"2.0"},"scenes":[{"nodes":[0]}],"nodes":[{"name":"","children":[1,2,3,4,5]},{"name":"Group 2","matrix":[1.0170116785748973,0,0,0,0,0.9156049093177602,0,0,0,0,1.0170285622775688,0,7.120576826896059,67.53023673358717,333.7056059108514,1]},{"name":"Group 3","matrix":[0.9808862270000684,0,0.009667662934234239,0,0,1.3370343626481753,0,0,-0.00991317267994336,0,1.005829171760012,0,-78.2632793112457,41.669220165488866,357.4691842409752,0.9999999999999998],"children":[6,7,8]},{"name":"Group","matrix":[1.0170116785748973,0,0,0,0,0.9156049093177602,0,0,0,0,1.0170285622775688,0,7.120576826896059,50.7203525590366,333.7056059108514,1]},{"name":"Directional Light","translation":[211.79927453420706,384.09740840880215,339.33026218105675],"rotation":[-0.42660533927615446,0.10982436871346002,-0.2238159701417853,0.8693980124472672],"extensions":{"KHR_lights_punctual":{"light":0}}},{"name":"Personal Camera","camera":0,"translation":[0,6.123233995736766e-14,1000],"rotation":[-3.061616997868383e-17,0,0,1]},{"name":"Cone","matrix":[3.330669073875477e-16,-1.5463325064857296e-14,1.0000000000000018,0,0.0071265249687107336,-0.9999746059985097,-1.5465927150071258e-14,0,0.9999746059985084,0.007126524968710726,-2.2204460492503155e-16,0,0.6026805844895503,133.5344546780503,-0.27971014953186574,1],"mesh":0},{"name":"Cylinder 2","matrix":[1,0,0,0,0,1,0,0,0,0,1,0,0,-132.3353549602517,0,1],"mesh":1},{"name":"Cylinder","matrix":[1,0,0,0,0,1,0,0,0,0,1,0,-1.5000000000000284,-16.86279712171128,0,1],"mesh":2}],"cameras":[{"type":"perspective","perspective":{"aspectRatio":2.276666666666667,"yfov":0.7853981633974483,"znear":5,"zfar":500000}}],"meshes":[{"primitives":[{"attributes":{"POSITION":1,"NORMAL":2,"TEXCOORD_0":3},"indices":0}]},{"primitives":[{"attributes":{"POSITION":5,"NORMAL":6,"TEXCOORD_0":7},"indices":4}]},{"primitives":[{"attributes":{"POSITION":9,"NORMAL":10,"TEXCOORD_0":11},"indices":8}]}],"buffers":[{"uri":"data:application/octet-stream;base64,","byteLength":14848},{"uri":"data:application/octet-stream;base64,","byteLength":13952},{"uri":"data:application/octet-stream;base64,","byteLength":13952}],"bufferViews":[{"buffer":0,"byteOffset":0,"byteLength":3264,"target":34963},{"buffer":0,"byteOffset":3264,"byteLength":4344,"target":34962},{"buffer":0,"byteOffset":7608,"byteLength":4344,"target":34962},{"buffer":0,"byteOffset":11952,"byteLength":2896,"target":34962},{"buffer":1,"byteOffset":0,"byteLength":1536,"target":34963},{"buffer":1,"byteOffset":1536,"byteLength":4656,"target":34962},{"buffer":1,"byteOffset":6192,"byteLength":4656,"target":34962},{"buffer":1,"byteOffset":10848,"byteLength":3104,"target":34962},{"buffer":2,"byteOffset":0,"byteLength":1536,"target":34963},{"buffer":2,"byteOffset":1536,"byteLength":4656,"target":34962},{"buffer":2,"byteOffset":6192,"byteLength":4656,"target":34962},{"buffer":2,"byteOffset":10848,"byteLength":3104,"target":34962}],"accessors":[{"bufferView":0,"byteOffset":0,"componentType":5123,"count":1632,"type":"SCALAR","min":[0],"max":[361]},{"bufferView":1,"byteOffset":0,"componentType":5126,"count":362,"type":"VEC3","min":[-149,-75.5,-158.5],"max":[149,75.5,158.5]},{"bufferView":2,"byteOffset":0,"componentType":5126,"count":362,"type":"VEC3","min":[-0.711804986000061,-1,-0.6897692084312439],"max":[0.711804986000061,0.7240293025970459,0.6897692084312439]},{"bufferView":3,"byteOffset":0,"componentType":5126,"count":362,"type":"VEC2","min":[0,0],"max":[1,1]},{"bufferView":4,"byteOffset":0,"componentType":5123,"count":768,"type":"SCALAR","min":[0],"max":[387]},{"bufferView":5,"byteOffset":0,"componentType":5126,"count":388,"type":"VEC3","min":[-199,-22,-198.5],"max":[199,22,198.5]},{"bufferView":6,"byteOffset":0,"componentType":5126,"count":388,"type":"VEC3","min":[-1,-1,-1],"max":[1,1,1]},{"bufferView":7,"byteOffset":0,"componentType":5126,"count":388,"type":"VEC2","min":[0,0],"max":[1,1]},{"bufferView":8,"byteOffset":0,"componentType":5123,"count":768,"type":"SCALAR","min":[0],"max":[387]},{"bufferView":9,"byteOffset":0,"componentType":5126,"count":388,"type":"VEC3","min":[-33.5,-134.5,-40.5],"max":[33.5,134.5,40.5]},{"bufferView":10,"byteOffset":0,"componentType":5126,"count":388,"type":"VEC3","min":[-1,-1,-1],"max":[1,1,1]},{"bufferView":11,"byteOffset":0,"componentType":5126,"count":388,"type":"VEC2","min":[0,0],"max":[1,1]}],"extensions":{"KHR_lights_punctual":{"lights":[{"type":"directional","name":"Directional Light","color":[1,1,1],"intensity":0.7}]}},"extensionsUsed":["KHR_lights_punctual"]}